<?xml version="1.0" encoding="UTF-8"?><svg id="base" xmlns="http://www.w3.org/2000/svg" width="1501" height="268" viewBox="0 0 1501 268"><defs><style>.cls-1{fill:#9bb70e;}</style></defs><path class="cls-1" d="m225.91.56c-13.15,0-24.67,6.98-31.06,17.44l-63.71,95.99L67.43,18C61.04,7.54,49.52.56,36.37.56,16.28.56,0,16.84,0,36.93v169.26c0,20.09,16.28,36.37,36.37,36.37s36.37-16.28,36.37-36.37v-48.66l25.76,38.81c6.06,11.67,18.24,19.64,32.29,19.64s25.09-7.24,31.4-18.02l.36.24,26.99-40.66v48.66c0,20.09,16.28,36.37,36.37,36.37s36.37-16.28,36.37-36.37V36.93c0-20.09-16.28-36.37-36.37-36.37Z"/><path class="cls-1" d="m361.44,84.7c-43.39,0-78.57,35.18-78.57,78.57s35.18,78.57,78.57,78.57,78.57-35.18,78.57-78.57-35.18-78.57-78.57-78.57Zm-.35,100.13c-11.86,0-21.47-9.61-21.47-21.47s9.61-21.47,21.47-21.47,21.47,9.61,21.47,21.47-9.61,21.47-21.47,21.47Z"/><g><path class="cls-1" d="m533.71,122.27c.19-1.5.3-3.03.3-4.58,0-20.13-16.32-36.44-36.44-36.44s-36.44,16.32-36.44,36.44c0,.1,0,.21,0,.31h-.16v88.56h0s0,.06,0,.09c0,20.13,16.32,36.44,36.44,36.44s36.44-16.32,36.44-36.44c0-1.08-.06-2.15-.15-3.2v-81.18Z"/><circle class="cls-1" cx="497.48" cy="36.78" r="36.37" transform="translate(273.13 482.32) rotate(-67.5)"/></g><path class="cls-1" d="m706.9,188.76l-45.84-45.84h30.58v-.03c.4.02.8.03,1.2.03,16.11,0,29.16-13.06,29.16-29.16s-13.06-29.16-29.16-29.16c-.4,0-.8.01-1.2.03v-.03h-100.68c-15.92.22-28.76,13.19-28.76,29.16,0,7.85,3.11,14.98,8.16,20.22l-.36.36,49.33,49.33h-30.76c-.13,0-.27,0-.4,0-16.11,0-29.16,13.06-29.16,29.16s13.06,29.16,29.16,29.16c.13,0,.27,0,.4-.01h0s100.68.01,100.68.01v-.03c.4.02.8.03,1.2.03,16.11,0,29.16-13.06,29.16-29.16,0-10-5.03-18.82-12.7-24.07Z"/><path class="cls-1" d="m888.44,188.58l-45.84-45.84h30.58v-.03c.4.02.8.03,1.2.03,16.11,0,29.16-13.06,29.16-29.16s-13.06-29.16-29.16-29.16c-.4,0-.8.01-1.2.03v-.03h-100.68c-15.92.22-28.76,13.19-28.76,29.16,0,7.85,3.11,14.98,8.16,20.22l-.36.36,49.33,49.33h-30.76c-.13,0-.27,0-.4,0-16.11,0-29.16,13.06-29.16,29.16s13.06,29.16,29.16,29.16c.13,0,.27,0,.4-.01h0s100.68.01,100.68.01v-.03c.4.02.8.03,1.2.03,16.11,0,29.16-13.06,29.16-29.16,0-10-5.03-18.82-12.7-24.07Z"/><g><circle class="cls-1" cx="1079.5" cy="120.5" r="36.5"/><path class="cls-1" d="m1093.27,171.7l-88.27-50.96V37h-.01c0-.17.01-.33.01-.5,0-20.16-16.34-36.5-36.5-36.5s-36.5,16.34-36.5,36.5c0,.17.01.33.01.5h-.01v168h.01c0,.17-.01.33-.01.5,0,20.16,16.34,36.5,36.5,36.5s36.5-16.34,36.5-36.5c0-.16-.01-.32-.01-.48l56.06,32.37.17-.3c5.38,3.12,11.61,4.91,18.28,4.91,20.16,0,36.5-16.34,36.5-36.5,0-15.28-9.4-28.37-22.73-33.8Z"/></g><path class="cls-1" d="m1274.96,218.81l-66.21-38.23.24-.41c-6-3.8-9.99-10.49-9.99-18.11,0-11.83,9.59-21.42,21.42-21.42,4.62,0,8.89,1.47,12.39,3.95l63.78,36.83c1.52-6.09,2.33-12.45,2.33-19.01,0-43.3-35.1-78.4-78.4-78.4-43.3,0-78.4,35.1-78.4,78.4,0,43.3,35.1,78.4,78.4,78.4,21.15,0,40.34-8.38,54.44-21.99Z"/><path class="cls-1" d="m1501,121c0-19.88-16.12-36-36-36-9.64,0-18.39,3.8-24.85,9.97l-.18-.18-30.39,30.39-30.89-30.89-.27.27c-6.42-5.93-14.99-9.56-24.42-9.56-19.88,0-36,16.12-36,36,0,11.75,5.63,22.19,14.35,28.76l26.32,26.32-32.29,32.29.25.25c-5.38,6.29-8.63,14.45-8.63,23.37,0,19.88,16.12,36,36,36,11.4,0,21.55-5.3,28.15-13.57l105.28-105.28c8.27-6.6,13.57-16.75,13.57-28.15Z"/></svg>